# xmcd
#
# Track frame offsets:
#	150
#	19174
#	43675
#	69183
#	89089
#	112091
#	127349
#	156594
#	176247
#	201417
#
# Disc length: 2941 seconds
#
# Revision: 2
# Processed by: cddbd v1.5.2PL0 Copyright (c) Steve Scherf et al.
# Submitted via: EZCDAudioConverter 8.0.2.1
#
DISCID=9c0b7b0a
DTITLE=Hồ Hoàng Yến - Bão Tình
DYEAR=2011
DGENRE=Miscellaneous
TTITLE0=Hồ Hoàng Yến - Bão Tình
TTITLE1=Hồ Hoàng Yến - Hạnh Phúc Lang Thang
TTITLE2=Hồ Hoàng Yến - Xin Thời Gian Qua Mau
TTITLE3=Hồ Hoàng Yến - Bao Giờ Biết Tương Tư
TTITLE4=Hồ Hoàng Yến - Một Mai Em Đi
TTITLE5=Hồ Hoàng Yến - Bai Tango Riêng Cho Em
TTITLE6=Hồ Hoàng Yến and Quốc Khanh - Liên Khúc Vũ Thành Anh
TTITLE7=Hồ Hoàng Yến - Mộng Chiều Xuân
TTITLE8=Hồ Hoàng Yến - Xin Đừng Có Mùa Đông
TTITLE9=Hồ Hoàng Yến - Khúc Thụy Du
EXTD=
EXTT0=
EXTT1=
EXTT2=
EXTT3=
EXTT4=
EXTT5=
EXTT6=
EXTT7=
EXTT8=
EXTT9=
PLAYORDER=
